<svg xmlns="http://www.w3.org/2000/svg" version="1.1" xmlns:xlink="http://www.w3.org/1999/xlink" xmlns:svgjs="http://svgjs.dev/svgjs" width="1000" height="1000" viewBox="0 0 1000 1000"><rect width="1000" height="1000" fill="#000000"></rect><g transform="matrix(0.7,0,0,0.7,149.57583795948182,339.40010131967574)"><svg viewBox="0 0 396 182" data-background-color="#ffffff" preserveAspectRatio="xMidYMid meet" height="459" width="1000" xmlns="http://www.w3.org/2000/svg" xmlns:xlink="http://www.w3.org/1999/xlink"><defs></defs><g id="tight-bounds" transform="matrix(1,0,0,1,0.2399545257788418,-0.028379832496057134)"><svg viewBox="0 0 395.52 182.05675966499211" height="182.05675966499211" width="395.52"><g><svg viewBox="0 0 605.4833666961824 278.7023153614411" height="182.05675966499211" width="395.52"><g transform="matrix(1,0,0,1,0,38.518192644019734)"><svg viewBox="0 0 395.52 201.66593007340163" height="201.66593007340163" width="395.52"><g><svg viewBox="0 0 395.52 201.66593007340163" height="201.66593007340163" width="395.52"><g><svg viewBox="0 0 395.52 129.36225522885724" height="129.36225522885724" width="395.52"><g transform="matrix(1,0,0,1,0,0)"><svg width="395.52" viewBox="0 -38.22999954223633 161.07000732421875 52.68000030517578" height="129.36225522885724" data-palette-color="#4d7e3e"><path d="M35.94 0L35.94 0 32.23 0.34Q29.54-16.5 26.42-28.52L26.42-28.52Q24.8-24.71 22.88-17.8 20.95-10.89 20.21-8.84L20.21-8.84Q20.12-8.84 19.9-8.81 19.68-8.79 19.53-8.79L19.53-8.79Q18.85-8.79 17.29-8.94 15.72-9.08 15.28-9.08L15.28-9.08Q15.23-10.5 12.79-18.53 10.35-26.56 9.86-28.81L9.86-28.81Q8.98-20.9 3.03 0L3.03 0 0-0.29Q0.68-5.62 3.37-17.04 6.05-28.47 6.54-34.72L6.54-34.72Q7.42-34.81 7.96-34.81L7.96-34.81Q8.45-34.81 11.57-34.42L11.57-34.42Q12.26-34.33 13.55-30 14.84-25.68 16.16-20.51 17.48-15.33 17.82-14.4L17.82-14.4Q19.19-17.77 21.12-25.34 23.05-32.91 23.83-34.96L23.83-34.96Q24.61-34.91 28.76-34.52L28.76-34.52Q30.03-29.59 31.23-23.88 32.42-18.16 33.81-10.89 35.21-3.61 35.94 0ZM41.45 14.45L41.45 14.45 38.43 12.74Q40.43 9.28 45.51-0.44L45.51-0.44Q41.55-3.96 39.45-11.08 37.35-18.21 36.91-25.34L36.91-25.34 39.74-25.2Q39.99-24.02 40.79-19.85 41.6-15.67 42.09-13.67 42.58-11.67 43.82-8.67 45.07-5.66 46.68-3.61L46.68-3.61Q53.46-16.65 53.46-25L53.46-25 53.46-25.54Q56-25.15 57.27-24.61L57.27-24.61Q56.49-19.48 54.83-14.16 53.17-8.84 50.68-3.44 48.19 1.95 46.26 5.62 44.33 9.28 41.45 14.45ZM62.59 0.93L62.59 0.93 59.86 1.46 59.27-37.11Q60.64-37.79 62.98-38.23L62.98-38.23Q62.93-37.11 62.93-34.72L62.93-34.72Q62.93-29.44 63.33-24.27L63.33-24.27Q65.67-25.59 68.31-25.59L68.31-25.59Q71.04-25.59 72.94-24.29 74.85-23 75.78-20.75 76.7-18.51 77.09-16.21 77.49-13.92 77.49-11.23L77.49-11.23Q77.49-8.3 76.58-5.59 75.68-2.88 73.46-0.85 71.24 1.17 68.06 1.17L68.06 1.17Q65.33 1.17 62.64-0.54L62.64-0.54Q62.59-0.05 62.59 0.93ZM63.18-19.48L63.18-19.48 63.03-3.76Q63.33-2.88 64.86-2.37 66.4-1.86 68.21-1.86L68.21-1.86Q69.92-1.86 71.06-2.51 72.21-3.17 72.8-4.42 73.38-5.66 73.6-7.03 73.82-8.4 73.82-10.16L73.82-10.16Q73.82-11.96 73.63-13.7 73.43-15.43 72.85-17.5 72.26-19.58 70.94-20.85 69.62-22.12 67.67-22.12L67.67-22.12Q66.25-22.12 65.01-21.41 63.76-20.7 63.18-19.48ZM82.51-25.1L82.51-25.1 84.76-24.61Q85.15-20.61 85.44-12.04 85.73-3.47 85.83-1.42L85.83-1.42Q85.39 0.1 84.12 0.1L84.12 0.1Q83.24 0.1 82.44-0.61 81.63-1.32 81.44-2.34L81.44-2.34Q81.54-4.35 81.83-12.77 82.12-21.19 82.51-25.1ZM83.2-33.84L83.2-33.84Q84.51-33.84 85.39-32.69 86.27-31.54 86.27-30.08L86.27-30.08Q86.27-29 85.76-28.34 85.25-27.69 84.37-27.69L84.37-27.69Q83-27.69 82.22-28.81 81.44-29.93 81.44-31.45L81.44-31.45Q81.44-32.52 81.9-33.18 82.37-33.84 83.2-33.84ZM90.27-10.4L90.27-10.4Q90.27-12.35 90.69-14.75 91.1-17.14 91.93-19.78 92.76-22.41 94.42-24.17 96.08-25.93 98.28-25.93L98.28-25.93Q102.97-25.93 105.8-21.7 108.63-17.48 108.63-12.3L108.63-12.3Q108.63-10.11 108.17-7.93 107.7-5.76 106.73-3.66 105.75-1.56 103.92-0.17 102.09 1.22 99.65 1.42L99.65 1.42Q95.16 0.83 92.71-2.42 90.27-5.66 90.27-10.4ZM98.57-23.39L98.57-23.39Q96.87-23.19 95.69-20.26 94.52-17.33 94.18-14.58 93.84-11.82 93.84-9.72L93.84-9.72Q93.84-6.98 95.52-4.66 97.21-2.34 99.31-2.34L99.31-2.34Q100.82-2.34 102.04-3.52 103.26-4.69 103.97-6.42 104.68-8.15 105.04-9.91 105.41-11.67 105.41-13.04L105.41-13.04Q105.41-17.04 103.6-20.02 101.8-23 98.57-23.39ZM125.92-19.34L125.92-19.34Q126.11-16.6 126.21-12.87 126.31-9.13 126.38-5.32 126.45-1.51 126.5-0.15L126.5-0.15Q125.43 0.15 124.5 0.15L124.5 0.15Q123.77 0.15 123.13-0.1L123.13-0.1Q122.99-2 122.94-4.44 122.89-6.88 122.89-8.76 122.89-10.64 122.81-12.7 122.74-14.75 122.55-16.21 122.35-17.68 121.96-18.92 121.57-20.17 120.86-20.85 120.15-21.53 119.13-21.58L119.13-21.58Q118.1-21.58 117.47-21.14 116.83-20.7 116.1-19.53L116.1-19.53 116.1-0.2Q115.37 0.2 114.34 0.2L114.34 0.2Q113.56 0.2 112.59-0.05L112.59-0.05Q112.73-3.13 112.78-12.16 112.83-21.19 113.17-25.54L113.17-25.54 115.37-25.05 115.51-22.56Q116.98-24.85 119.23-24.85L119.23-24.85Q122.55-24.85 124.84-21.92L124.84-21.92Q126.26-24.85 129.43-24.85L129.43-24.85Q130.7-24.85 131.63-24.56L131.63-24.56Q136.95-23.05 136.95-10.94L136.95-10.94Q136.95-9.18 136.83-6.23 136.71-3.27 136.71-2.25L136.71-2.25Q136.71-0.88 136.85 0L136.85 0Q134.31 0.68 133.78 0.68L133.78 0.68Q133.29 0.68 133.09 0.59L133.09 0.59Q132.9-0.05 132.9-1.76L132.9-1.76Q132.9-2.83 133.04-6.18 133.19-9.52 133.19-11.43L133.19-11.43Q133.19-21.58 129.19-21.68L129.19-21.68Q128.26-21.63 127.58-21.12 126.89-20.61 125.92-19.34ZM160.58-4.74L160.58-4.74 161.07-2.59Q158.92-1.81 154.7-0.85 150.47 0.1 148.42 0.1L148.42 0.1Q146.32 0.1 144.76-1.29 143.2-2.69 142.42-4.86 141.64-7.03 141.27-9.16 140.9-11.28 140.9-13.33L140.9-13.33Q140.9-25.54 151.94-25.54L151.94-25.54Q154.57-25.54 156.58-23.85 158.58-22.17 158.58-19.48L158.58-19.48Q158.58-18.02 157.77-16.89 156.97-15.77 155.82-15.11 154.67-14.45 152.89-13.92 151.11-13.38 149.74-13.13 148.37-12.89 146.47-12.6 144.57-12.3 143.83-12.16L143.83-12.16Q143.88-10.74 144-9.67 144.13-8.59 144.49-7.35 144.86-6.1 145.47-5.3 146.08-4.49 147.15-3.96 148.23-3.42 149.69-3.42L149.69-3.42Q151.45-3.42 153.99-3.74 156.53-4.05 158.51-4.39 160.48-4.74 160.58-4.74ZM144.03-15.19L144.03-15.19Q150.67-17.09 154.92-19.19L154.92-19.19Q154.57-20.8 153.99-21.53 153.4-22.27 152.23-22.27L152.23-22.27Q149.25-22.27 146.84-20.21 144.42-18.16 144.03-15.19Z" opacity="1" transform="matrix(1,0,0,1,0,0)" fill="#ffffff" class="undefined-text-0" data-fill-palette-color="primary" id="text-0"></path></svg></g></svg></g><g transform="matrix(1,0,0,1,163.310208,159.90157899426492)"><svg viewBox="0 0 232.209792 41.76435107913669" height="41.76435107913669" width="232.209792"><g transform="matrix(1,0,0,1,0,0)"><svg width="232.209792" viewBox="5.400000095367432 -33 243.23001098632812 43.75" height="41.76435107913669" data-palette-color="#4d7e3e"><path d="M31.15-33L37.3-33 37.3 0 33.5 0 33.5-20.75 33.95-29.45 33.9-29.45 23.05 0 19.65 0 8.8-29.45 8.75-29.45 9.2-20.75 9.2 0 5.4 0 5.4-33 11.55-33 18.8-12.95 21.3-4.7 21.4-4.7 23.95-12.9 31.15-33ZM63.6-25L67.9-25 56.15 4.2Q55.2 6.65 54.07 8.08 52.95 9.5 51.57 10.13 50.2 10.75 48.4 10.75L48.4 10.75Q46.7 10.75 45.27 10.28 43.85 9.8 42.75 9L42.75 9 43.85 5.5Q44.85 6.4 45.97 6.83 47.1 7.25 48.2 7.25L48.2 7.25Q49.5 7.25 50.65 6.45 51.8 5.65 52.75 3.2L52.75 3.2 54.05-0.05 51.55-6 43.6-25 48.15-25 54.4-8.7 55.95-4.25 57.75-9.2 63.6-25ZM113.04-33L116.84-33 116.84 0 111.89 0 98.09-22.1 94.59-28.3 94.54-28.3 94.74-23.3 94.74 0 90.94 0 90.94-33 95.89-33 109.64-11 113.19-4.65 113.24-4.65 113.04-9.7 113.04-33ZM141.49-9.25L141.49-16.15Q141.49-18.95 139.99-20.48 138.49-22 135.74-22L135.74-22Q133.14-22 131.34-20.88 129.54-19.75 128.69-17.25L128.69-17.25 125.44-19.25Q126.44-22.05 129.14-23.78 131.84-25.5 135.84-25.5L135.84-25.5Q138.54-25.5 140.74-24.58 142.94-23.65 144.22-21.78 145.49-19.9 145.49-16.95L145.49-16.95 145.49-4.85Q145.49-3.05 147.39-3.05L147.39-3.05Q148.34-3.05 149.24-3.3L149.24-3.3 149.04-0.15Q148.04 0.35 146.44 0.35L146.44 0.35Q144.99 0.35 143.84-0.2 142.69-0.75 142.04-1.88 141.39-3 141.39-4.7L141.39-4.7 141.39-5.2 142.39-5.05Q141.79-3.1 140.34-1.88 138.89-0.65 137.09-0.08 135.29 0.5 133.54 0.5L133.54 0.5Q131.34 0.5 129.44-0.25 127.54-1 126.42-2.53 125.29-4.05 125.29-6.3L125.29-6.3Q125.29-9.1 127.17-10.93 129.04-12.75 132.39-13.4L132.39-13.4 142.29-15.35 142.29-12.05 134.24-10.4Q131.79-9.9 130.59-9 129.39-8.1 129.39-6.5L129.39-6.5Q129.39-4.95 130.62-3.98 131.84-3 134.09-3L134.09-3Q135.54-3 136.87-3.38 138.19-3.75 139.24-4.53 140.29-5.3 140.89-6.48 141.49-7.65 141.49-9.25L141.49-9.25ZM157.09-31L161.09-32.1 161.09-6.9Q161.09-5.05 162.14-4.15 163.19-3.25 164.84-3.25L164.84-3.25Q166.29-3.25 167.34-3.75 168.39-4.25 169.24-5.1L169.24-5.1 170.64-1.75Q169.49-0.7 167.91-0.1 166.34 0.5 164.29 0.5L164.29 0.5Q162.39 0.5 160.74-0.18 159.09-0.85 158.11-2.33 157.14-3.8 157.09-6.2L157.09-6.2 157.09-31ZM152.09-25L170.19-25 170.19-21.55 152.09-21.55 152.09-25ZM185.19 0.5L185.19 0.5Q182.79 0.5 180.66-0.4 178.54-1.3 177.21-3.33 175.89-5.35 175.89-8.6L175.89-8.6 175.89-25 179.89-25 179.89-9.65Q179.89-5.85 181.54-4.42 183.19-3 186.19-3L186.19-3Q187.59-3 188.94-3.48 190.29-3.95 191.36-4.98 192.44-6 193.06-7.6 193.69-9.2 193.69-11.4L193.69-11.4 193.69-25 197.69-25 197.69 0 194.19 0 193.94-3.8Q192.64-1.55 190.41-0.53 188.19 0.5 185.19 0.5ZM210.98 0L206.98 0 206.98-25 210.23-25 210.78-20.9Q211.83-23.2 213.86-24.35 215.88-25.5 218.78-25.5L218.78-25.5Q219.43-25.5 220.21-25.4 220.98-25.3 221.53-25L221.53-25 220.83-21.35Q220.28-21.55 219.63-21.65 218.98-21.75 217.78-21.75L217.78-21.75Q216.23-21.75 214.66-20.85 213.08-19.95 212.03-18.13 210.98-16.3 210.98-13.5L210.98-13.5 210.98 0ZM237.83 0.5L237.83 0.5Q234.28 0.5 231.51-1.05 228.73-2.6 227.18-5.53 225.63-8.45 225.63-12.5L225.63-12.5Q225.63-16.55 227.18-19.48 228.73-22.4 231.43-23.95 234.13-25.5 237.58-25.5L237.58-25.5Q241.08-25.5 243.56-24 246.03-22.5 247.33-19.93 248.63-17.35 248.63-14.15L248.63-14.15Q248.63-13.3 248.58-12.6 248.53-11.9 248.43-11.35L248.43-11.35 228.23-11.35 228.23-14.9 246.68-14.9 244.63-14.5Q244.63-18.1 242.66-20.05 240.68-22 237.48-22L237.48-22Q235.03-22 233.26-20.88 231.48-19.75 230.51-17.63 229.53-15.5 229.53-12.5L229.53-12.5Q229.53-9.55 230.53-7.4 231.53-5.25 233.36-4.13 235.18-3 237.73-3L237.73-3Q240.48-3 242.21-4.05 243.93-5.1 244.98-6.9L244.98-6.9 248.13-5.05Q247.18-3.35 245.71-2.1 244.23-0.85 242.26-0.18 240.28 0.5 237.83 0.5Z" opacity="1" transform="matrix(1,0,0,1,0,0)" fill="#ffffff" class="undefined-text-1" data-fill-palette-color="secondary" id="text-1"></path></svg></g></svg></g></svg></g></svg></g><g transform="matrix(1,0,0,1,426.05932376540767,0)"><svg viewBox="0 0 179.42404293077468 278.7023153614411" height="278.7023153614411" width="179.42404293077468"><g><svg xmlns="http://www.w3.org/2000/svg" xmlns:xlink="http://www.w3.org/1999/xlink" version="1.1" x="0" y="0" viewBox="50.53476333618164 11.091796875 95.07945251464844 147.6884765625" enable-background="new 0 0 208 176" xml:space="preserve" height="278.7023153614411" width="179.42404293077468" class="icon-icon-0" data-fill-palette-color="accent" id="icon-0"><path d="M126.538 11.092c-7.927 8.283-14.512 16.342-19.967 24.156-3.789-4.723-6.602-7.432-6.866-7.68l-7.203-6.823-5.118 8.497c-5.81 9.651-10.111 18.72-13.212 27.208-10.835-8.704-19.951-12.817-19.95-12.817C34.717 136.528 98.719 157.122 103.61 158.553l0.341 0.227 0.334-0.434C181.764 93.399 126.538 11.092 126.538 11.092zM94.219 33.359c0 0 3.357 3.183 7.709 8.898-25.344 40.577-20.134 73.738-11.57 94.138C77.418 120.041 62.43 86.157 94.219 33.359z" fill="#ffffff" data-fill-palette-color="accent"></path></svg></g></svg></g></svg></g></svg><rect width="395.52" height="182.05675966499211" fill="none" stroke="none" visibility="hidden"></rect></g></svg></g></svg>